<mxfile host="app.diagrams.net" agent="Mozilla/5.0 (Windows NT 10.0; Win64; x64) AppleWebKit/537.36 (KHTML, like Gecko) Chrome/134.0.0.0 Safari/537.36" version="26.2.5">
  <diagram name="Page-1" id="bfe91b75-5d2c-26a0-9c1d-138518896778">
    <mxGraphModel dx="2040" dy="1121" grid="1" gridSize="10" guides="1" tooltips="1" connect="1" arrows="1" fold="1" page="1" pageScale="1" pageWidth="1100" pageHeight="850" background="none" math="0" shadow="0">
      <root>
        <mxCell id="0" />
        <mxCell id="1" parent="0" />
        <mxCell id="eQpALe2EHC9HJfQD7mmY-1" value="WAN" style="ellipse;shape=cloud;fillColor=light-dark(#51bcb1, #ededed);strokeColor=light-dark(#000000, #18746a);strokeWidth=3;perimeterSpacing=0;shadow=0;fontColor=default;fontStyle=1;fontSize=13;labelBackgroundColor=none;labelBorderColor=none;textShadow=0;whiteSpace=wrap;html=1;" vertex="1" parent="1">
          <mxGeometry x="470" y="20" width="120" height="80" as="geometry" />
        </mxCell>
        <mxCell id="eQpALe2EHC9HJfQD7mmY-48" style="edgeStyle=orthogonalEdgeStyle;rounded=0;orthogonalLoop=1;jettySize=auto;html=1;" edge="1" parent="1" source="eQpALe2EHC9HJfQD7mmY-2" target="eQpALe2EHC9HJfQD7mmY-6">
          <mxGeometry relative="1" as="geometry">
            <Array as="points">
              <mxPoint x="570" y="190" />
              <mxPoint x="570" y="190" />
            </Array>
          </mxGeometry>
        </mxCell>
        <mxCell id="eQpALe2EHC9HJfQD7mmY-2" value="Router O2" style="fontColor=#000509;verticalAlign=top;verticalLabelPosition=bottom;labelPosition=center;align=center;html=1;outlineConnect=0;fillColor=#51BCB1;strokeColor=light-dark(#000000, #6b81ac);gradientColor=none;gradientDirection=north;strokeWidth=3;shape=mxgraph.networks.router;fontSize=13;fontStyle=1" vertex="1" parent="1">
          <mxGeometry x="480" y="120" width="100" height="30" as="geometry" />
        </mxCell>
        <mxCell id="eQpALe2EHC9HJfQD7mmY-3" value="Server DELL" style="fontColor=#000509;verticalAlign=top;verticalLabelPosition=bottom;labelPosition=center;align=center;html=1;outlineConnect=0;fillColor=#51BCB1;strokeColor=light-dark(#000000, #6b81ac);gradientColor=none;gradientDirection=north;strokeWidth=3;shape=mxgraph.networks.server;fontSize=13;fontStyle=1" vertex="1" parent="1">
          <mxGeometry x="160" y="415" width="90" height="100" as="geometry" />
        </mxCell>
        <mxCell id="eQpALe2EHC9HJfQD7mmY-4" value="Qnap NAS" style="fontColor=#000509;verticalAlign=top;verticalLabelPosition=bottom;labelPosition=center;align=center;html=1;outlineConnect=0;fillColor=#51BCB1;strokeColor=light-dark(#000000, #6b81ac);gradientColor=none;gradientDirection=north;strokeWidth=3;shape=mxgraph.networks.server_storage;fontSize=13;fontStyle=1" vertex="1" parent="1">
          <mxGeometry x="365" y="410" width="105" height="105" as="geometry" />
        </mxCell>
        <mxCell id="eQpALe2EHC9HJfQD7mmY-53" style="edgeStyle=orthogonalEdgeStyle;rounded=0;orthogonalLoop=1;jettySize=auto;html=1;" edge="1" parent="1" source="eQpALe2EHC9HJfQD7mmY-5" target="eQpALe2EHC9HJfQD7mmY-21">
          <mxGeometry relative="1" as="geometry" />
        </mxCell>
        <mxCell id="eQpALe2EHC9HJfQD7mmY-54" style="edgeStyle=orthogonalEdgeStyle;rounded=0;orthogonalLoop=1;jettySize=auto;html=1;" edge="1" parent="1" source="eQpALe2EHC9HJfQD7mmY-5" target="eQpALe2EHC9HJfQD7mmY-37">
          <mxGeometry relative="1" as="geometry" />
        </mxCell>
        <mxCell id="eQpALe2EHC9HJfQD7mmY-55" style="edgeStyle=orthogonalEdgeStyle;rounded=0;orthogonalLoop=1;jettySize=auto;html=1;" edge="1" parent="1" source="eQpALe2EHC9HJfQD7mmY-5" target="eQpALe2EHC9HJfQD7mmY-39">
          <mxGeometry relative="1" as="geometry" />
        </mxCell>
        <mxCell id="eQpALe2EHC9HJfQD7mmY-56" style="edgeStyle=orthogonalEdgeStyle;rounded=0;orthogonalLoop=1;jettySize=auto;html=1;" edge="1" parent="1" source="eQpALe2EHC9HJfQD7mmY-5" target="eQpALe2EHC9HJfQD7mmY-41">
          <mxGeometry relative="1" as="geometry" />
        </mxCell>
        <mxCell id="eQpALe2EHC9HJfQD7mmY-57" style="edgeStyle=orthogonalEdgeStyle;rounded=0;orthogonalLoop=1;jettySize=auto;html=1;" edge="1" parent="1" source="eQpALe2EHC9HJfQD7mmY-5" target="eQpALe2EHC9HJfQD7mmY-43">
          <mxGeometry relative="1" as="geometry" />
        </mxCell>
        <mxCell id="eQpALe2EHC9HJfQD7mmY-58" style="edgeStyle=orthogonalEdgeStyle;rounded=0;orthogonalLoop=1;jettySize=auto;html=1;" edge="1" parent="1" source="eQpALe2EHC9HJfQD7mmY-5" target="eQpALe2EHC9HJfQD7mmY-45">
          <mxGeometry relative="1" as="geometry" />
        </mxCell>
        <mxCell id="eQpALe2EHC9HJfQD7mmY-59" style="edgeStyle=orthogonalEdgeStyle;rounded=0;orthogonalLoop=1;jettySize=auto;html=1;" edge="1" parent="1" source="eQpALe2EHC9HJfQD7mmY-5" target="eQpALe2EHC9HJfQD7mmY-4">
          <mxGeometry relative="1" as="geometry" />
        </mxCell>
        <mxCell id="eQpALe2EHC9HJfQD7mmY-60" style="edgeStyle=orthogonalEdgeStyle;rounded=0;orthogonalLoop=1;jettySize=auto;html=1;" edge="1" parent="1" source="eQpALe2EHC9HJfQD7mmY-5" target="eQpALe2EHC9HJfQD7mmY-3">
          <mxGeometry relative="1" as="geometry" />
        </mxCell>
        <mxCell id="eQpALe2EHC9HJfQD7mmY-5" value="Switch" style="fontColor=#000509;verticalAlign=top;verticalLabelPosition=bottom;labelPosition=center;align=center;html=1;outlineConnect=0;fillColor=#51BCB1;strokeColor=light-dark(#000000, #6b81ac);gradientColor=none;gradientDirection=north;strokeWidth=3;shape=mxgraph.networks.switch;fontSize=13;fontStyle=1" vertex="1" parent="1">
          <mxGeometry x="480" y="290" width="100" height="30" as="geometry" />
        </mxCell>
        <mxCell id="eQpALe2EHC9HJfQD7mmY-6" value="Wifi router Mikrotik" style="fontColor=#000509;verticalAlign=top;verticalLabelPosition=bottom;labelPosition=center;align=center;html=1;outlineConnect=0;fillColor=#51BCB1;strokeColor=light-dark(#000000, #6b81ac);gradientColor=none;gradientDirection=north;strokeWidth=3;shape=mxgraph.networks.router;fontSize=13;fontStyle=1" vertex="1" parent="1">
          <mxGeometry x="480" y="200" width="100" height="30" as="geometry" />
        </mxCell>
        <mxCell id="eQpALe2EHC9HJfQD7mmY-62" style="edgeStyle=orthogonalEdgeStyle;rounded=0;orthogonalLoop=1;jettySize=auto;html=1;" edge="1" parent="1" source="eQpALe2EHC9HJfQD7mmY-7" target="eQpALe2EHC9HJfQD7mmY-8">
          <mxGeometry relative="1" as="geometry">
            <Array as="points">
              <mxPoint x="95" y="650" />
            </Array>
          </mxGeometry>
        </mxCell>
        <mxCell id="eQpALe2EHC9HJfQD7mmY-63" style="edgeStyle=orthogonalEdgeStyle;rounded=0;orthogonalLoop=1;jettySize=auto;html=1;" edge="1" parent="1" source="eQpALe2EHC9HJfQD7mmY-7" target="eQpALe2EHC9HJfQD7mmY-9">
          <mxGeometry relative="1" as="geometry">
            <Array as="points">
              <mxPoint x="315" y="650" />
            </Array>
          </mxGeometry>
        </mxCell>
        <mxCell id="eQpALe2EHC9HJfQD7mmY-7" value="HYPERVISOR" style="fontColor=#000509;verticalAlign=top;verticalLabelPosition=bottom;labelPosition=center;align=center;html=1;outlineConnect=0;fillColor=#51BCB1;strokeColor=light-dark(#000000, #6b81ac);gradientColor=none;gradientDirection=north;strokeWidth=3;shape=mxgraph.networks.virtual_server;fontSize=13;fontStyle=1" vertex="1" parent="1">
          <mxGeometry x="150" y="590" width="110" height="120" as="geometry" />
        </mxCell>
        <mxCell id="eQpALe2EHC9HJfQD7mmY-8" value="DC01" style="fontColor=#000509;verticalAlign=top;verticalLabelPosition=bottom;labelPosition=center;align=center;html=1;outlineConnect=0;fillColor=#51BCB1;strokeColor=light-dark(#000000, #6b81ac);gradientColor=none;gradientDirection=north;strokeWidth=3;shape=mxgraph.networks.virtual_server;fontSize=13;fontStyle=1" vertex="1" parent="1">
          <mxGeometry x="40" y="770" width="110" height="120" as="geometry" />
        </mxCell>
        <mxCell id="eQpALe2EHC9HJfQD7mmY-9" value="TERM" style="fontColor=#000509;verticalAlign=top;verticalLabelPosition=bottom;labelPosition=center;align=center;html=1;outlineConnect=0;fillColor=#51BCB1;strokeColor=light-dark(#000000, #6b81ac);gradientColor=none;gradientDirection=north;strokeWidth=3;shape=mxgraph.networks.virtual_server;fontSize=13;fontStyle=1" vertex="1" parent="1">
          <mxGeometry x="260" y="770" width="110" height="120" as="geometry" />
        </mxCell>
        <mxCell id="eQpALe2EHC9HJfQD7mmY-16" value="Uživatel" style="fontColor=#000000;verticalAlign=top;verticalLabelPosition=bottom;labelPosition=center;align=center;html=1;outlineConnect=0;fillColor=#51BCB1;strokeColor=light-dark(#000000, #6b81ac);gradientColor=none;gradientDirection=north;strokeWidth=3;shape=mxgraph.networks.user_male;fontSize=13;fontStyle=1" vertex="1" parent="1">
          <mxGeometry x="620" y="520" width="40" height="100" as="geometry" />
        </mxCell>
        <mxCell id="eQpALe2EHC9HJfQD7mmY-21" value="Koncová stanice" style="fontColor=#000000;verticalAlign=top;verticalLabelPosition=bottom;labelPosition=center;align=center;html=1;outlineConnect=0;fillColor=#51BCB1;strokeColor=#020304;gradientColor=none;gradientDirection=north;strokeWidth=3;shape=mxgraph.networks.pc;fontStyle=1;fontSize=13;" vertex="1" parent="1">
          <mxGeometry x="590" y="410" width="100" height="70" as="geometry" />
        </mxCell>
        <mxCell id="eQpALe2EHC9HJfQD7mmY-36" value="Uživatel" style="fontColor=#000000;verticalAlign=top;verticalLabelPosition=bottom;labelPosition=center;align=center;html=1;outlineConnect=0;fillColor=#51BCB1;strokeColor=light-dark(#000000, #6b81ac);gradientColor=none;gradientDirection=north;strokeWidth=3;shape=mxgraph.networks.user_male;fontSize=13;fontStyle=1" vertex="1" parent="1">
          <mxGeometry x="750" y="520" width="40" height="100" as="geometry" />
        </mxCell>
        <mxCell id="eQpALe2EHC9HJfQD7mmY-37" value="Koncová stanice" style="fontColor=#000000;verticalAlign=top;verticalLabelPosition=bottom;labelPosition=center;align=center;html=1;outlineConnect=0;fillColor=#51BCB1;strokeColor=#020304;gradientColor=none;gradientDirection=north;strokeWidth=3;shape=mxgraph.networks.pc;fontStyle=1;fontSize=13;" vertex="1" parent="1">
          <mxGeometry x="720" y="410" width="100" height="70" as="geometry" />
        </mxCell>
        <mxCell id="eQpALe2EHC9HJfQD7mmY-38" value="Uživatel" style="fontColor=#000000;verticalAlign=top;verticalLabelPosition=bottom;labelPosition=center;align=center;html=1;outlineConnect=0;fillColor=#51BCB1;strokeColor=light-dark(#000000, #6b81ac);gradientColor=none;gradientDirection=north;strokeWidth=3;shape=mxgraph.networks.user_male;fontSize=13;fontStyle=1" vertex="1" parent="1">
          <mxGeometry x="880" y="520" width="40" height="100" as="geometry" />
        </mxCell>
        <mxCell id="eQpALe2EHC9HJfQD7mmY-39" value="Koncová stanice" style="fontColor=#000000;verticalAlign=top;verticalLabelPosition=bottom;labelPosition=center;align=center;html=1;outlineConnect=0;fillColor=#51BCB1;strokeColor=#020304;gradientColor=none;gradientDirection=north;strokeWidth=3;shape=mxgraph.networks.pc;fontStyle=1;fontSize=13;" vertex="1" parent="1">
          <mxGeometry x="850" y="410" width="100" height="70" as="geometry" />
        </mxCell>
        <mxCell id="eQpALe2EHC9HJfQD7mmY-40" value="Uživatel" style="fontColor=#000000;verticalAlign=top;verticalLabelPosition=bottom;labelPosition=center;align=center;html=1;outlineConnect=0;fillColor=#51BCB1;strokeColor=light-dark(#000000, #6b81ac);gradientColor=none;gradientDirection=north;strokeWidth=3;shape=mxgraph.networks.user_male;fontSize=13;fontStyle=1" vertex="1" parent="1">
          <mxGeometry x="1010" y="520" width="40" height="100" as="geometry" />
        </mxCell>
        <mxCell id="eQpALe2EHC9HJfQD7mmY-41" value="Koncová stanice" style="fontColor=#000000;verticalAlign=top;verticalLabelPosition=bottom;labelPosition=center;align=center;html=1;outlineConnect=0;fillColor=#51BCB1;strokeColor=#020304;gradientColor=none;gradientDirection=north;strokeWidth=3;shape=mxgraph.networks.pc;fontStyle=1;fontSize=13;" vertex="1" parent="1">
          <mxGeometry x="980" y="410" width="100" height="70" as="geometry" />
        </mxCell>
        <mxCell id="eQpALe2EHC9HJfQD7mmY-42" value="Uživatel" style="fontColor=#000000;verticalAlign=top;verticalLabelPosition=bottom;labelPosition=center;align=center;html=1;outlineConnect=0;fillColor=#51BCB1;strokeColor=light-dark(#000000, #6b81ac);gradientColor=none;gradientDirection=north;strokeWidth=3;shape=mxgraph.networks.user_male;fontSize=13;fontStyle=1" vertex="1" parent="1">
          <mxGeometry x="1140" y="520" width="40" height="100" as="geometry" />
        </mxCell>
        <mxCell id="eQpALe2EHC9HJfQD7mmY-43" value="Koncová stanice" style="fontColor=#000000;verticalAlign=top;verticalLabelPosition=bottom;labelPosition=center;align=center;html=1;outlineConnect=0;fillColor=#51BCB1;strokeColor=#020304;gradientColor=none;gradientDirection=north;strokeWidth=3;shape=mxgraph.networks.pc;fontStyle=1;fontSize=13;" vertex="1" parent="1">
          <mxGeometry x="1110" y="410" width="100" height="70" as="geometry" />
        </mxCell>
        <mxCell id="eQpALe2EHC9HJfQD7mmY-44" value="Uživatel" style="fontColor=#000000;verticalAlign=top;verticalLabelPosition=bottom;labelPosition=center;align=center;html=1;outlineConnect=0;fillColor=#51BCB1;strokeColor=light-dark(#000000, #6b81ac);gradientColor=none;gradientDirection=north;strokeWidth=3;shape=mxgraph.networks.user_male;fontSize=13;fontStyle=1" vertex="1" parent="1">
          <mxGeometry x="1270" y="520" width="40" height="100" as="geometry" />
        </mxCell>
        <mxCell id="eQpALe2EHC9HJfQD7mmY-45" value="Koncová stanice" style="fontColor=#000000;verticalAlign=top;verticalLabelPosition=bottom;labelPosition=center;align=center;html=1;outlineConnect=0;fillColor=#51BCB1;strokeColor=#020304;gradientColor=none;gradientDirection=north;strokeWidth=3;shape=mxgraph.networks.pc;fontStyle=1;fontSize=13;" vertex="1" parent="1">
          <mxGeometry x="1240" y="410" width="100" height="70" as="geometry" />
        </mxCell>
        <mxCell id="eQpALe2EHC9HJfQD7mmY-51" style="edgeStyle=orthogonalEdgeStyle;rounded=0;orthogonalLoop=1;jettySize=auto;html=1;entryX=0.95;entryY=0.05;entryDx=0;entryDy=0;entryPerimeter=0;" edge="1" parent="1" source="eQpALe2EHC9HJfQD7mmY-6" target="eQpALe2EHC9HJfQD7mmY-5">
          <mxGeometry relative="1" as="geometry">
            <Array as="points">
              <mxPoint x="600" y="215" />
              <mxPoint x="600" y="260" />
              <mxPoint x="575" y="260" />
            </Array>
          </mxGeometry>
        </mxCell>
        <mxCell id="eQpALe2EHC9HJfQD7mmY-52" style="edgeStyle=orthogonalEdgeStyle;rounded=0;orthogonalLoop=1;jettySize=auto;html=1;exitX=0.55;exitY=0.95;exitDx=0;exitDy=0;exitPerimeter=0;entryX=0.5;entryY=0;entryDx=0;entryDy=0;entryPerimeter=0;" edge="1" parent="1" source="eQpALe2EHC9HJfQD7mmY-1" target="eQpALe2EHC9HJfQD7mmY-2">
          <mxGeometry relative="1" as="geometry" />
        </mxCell>
        <mxCell id="eQpALe2EHC9HJfQD7mmY-61" style="edgeStyle=orthogonalEdgeStyle;rounded=0;orthogonalLoop=1;jettySize=auto;html=1;entryX=0.5;entryY=0;entryDx=0;entryDy=0;entryPerimeter=0;" edge="1" parent="1" source="eQpALe2EHC9HJfQD7mmY-3" target="eQpALe2EHC9HJfQD7mmY-7">
          <mxGeometry relative="1" as="geometry">
            <Array as="points">
              <mxPoint x="260" y="465" />
              <mxPoint x="260" y="560" />
              <mxPoint x="205" y="560" />
            </Array>
          </mxGeometry>
        </mxCell>
      </root>
    </mxGraphModel>
  </diagram>
</mxfile>
